<svg width="26" height="26" viewBox="0 0 26 26" fill="none" xmlns="http://www.w3.org/2000/svg">
<path d="M8.80371 5.59999V4.39999C8.80371 3.44521 9.22474 2.52953 9.97417 1.8544C10.7236 1.17927 11.74 0.799988 12.7999 0.799988C13.8598 0.799988 14.8762 1.17927 15.6256 1.8544C16.3751 2.52953 16.7961 3.44521 16.7961 4.39999V5.59999M9.03016 16.4C9.30537 17.1026 9.81573 17.7111 10.4909 18.1414C11.1661 18.5718 11.9728 18.8029 12.7999 18.8029C13.627 18.8029 14.4337 18.5718 15.1089 18.1414C15.7841 17.7111 16.2944 17.1026 16.5696 16.4" stroke="#574233" stroke-width="1.6" stroke-linecap="round"/>
<path d="M23.7548 13.4312C22.9742 9.68598 22.5852 7.81278 21.1039 6.70638C19.6267 5.59998 17.5114 5.59998 13.2794 5.59998H12.3203C8.08968 5.59998 5.97436 5.59998 4.49443 6.70638C3.01451 7.81278 2.62555 9.68598 1.84496 13.4312C0.748669 18.698 0.20119 21.3308 1.79967 23.066C3.39815 24.8012 6.37131 24.8 12.319 24.8H13.2807C19.2284 24.8 22.2029 24.8 23.8 23.066C24.7272 22.058 24.9323 20.75 24.7272 18.8" stroke="#574233" stroke-width="1.6" stroke-linecap="round"/>
</svg>
