<svg width="40" height="40" viewBox="0 0 40 40" fill="none" xmlns="http://www.w3.org/2000/svg">
<g opacity="0.8">
<path d="M4.72286 2.02203C3.81131 3.17752 2.3984 5.48852 1.62358 7.22177C0.438555 9.77349 0.119511 11.0253 0.0283556 14.2511C-0.199533 19.0656 0.939911 22.2914 3.67458 24.795C5.31537 26.2875 5.49769 26.6727 5.72557 29.3688C5.95346 32.0168 6.0902 32.3057 6.95617 32.1613C8.32351 31.9687 8.41466 29.0318 7.27522 24.1691C6.18135 19.6915 6.0902 15.0214 7.00175 12.2771C7.95888 9.43648 7.86773 8.56985 6.68271 8.76243C5.08749 9.00316 4.0392 12.7585 4.17593 17.6694C4.22151 19.7878 4.08478 21.4729 3.85689 21.3285C2.99091 20.7507 2.21609 17.6694 2.21609 14.7807C2.21609 12.2289 2.48955 11.1216 3.81131 8.32912C5.72557 4.28488 6.91059 2.98494 7.91331 3.85157C9.37179 5.1515 11.3316 10.2068 11.3316 12.7104C11.3316 15.4065 10.1466 18.536 8.64255 19.9323C7.50311 20.9915 7.36637 22.5321 8.41466 22.9654C9.37179 23.3506 11.1037 21.5211 12.4711 18.5842C14.1575 15.0214 14.0663 10.5438 12.2432 6.54773C10.6024 2.9368 8.36908 -9.60612e-05 7.22964 -9.60612e-05C6.77386 -9.60612e-05 5.63442 0.914673 4.72286 2.02203Z" fill="#3F352C"/>
<path d="M18.6243 16.8034C12.9727 18.6329 9.87341 22.7735 9.23533 29.5139C9.00744 32.1137 8.64282 33.1729 7.59453 34.5692C5.81699 36.8802 4.85986 38.9023 5.17891 39.48C5.81699 40.5874 7.18433 39.8652 8.32377 37.8912C9.96457 34.9062 14.4768 30.6694 17.8039 28.9361C21.1767 27.2029 24.3671 26.4807 28.7426 26.4807C31.7507 26.4807 31.8875 26.4325 31.7507 25.3733C31.614 24.3623 31.4317 24.3141 27.0562 24.3623C21.4046 24.4104 18.3053 25.3252 14.34 28.1176L11.3775 30.236L11.6054 28.6954C11.7421 27.8769 12.3802 26.0474 13.0183 24.6511C14.9325 20.3662 18.6699 18.5366 24.595 18.8736C27.5576 19.0662 28.7426 19.4033 31.4773 20.8476C33.3004 21.8587 35.397 23.1586 36.1262 23.7845C37.4024 24.8919 37.4479 25.0845 36.8554 26.1918C36.5364 26.8658 35.1235 28.6472 33.7562 30.0916C28.5603 35.6284 22.0883 37.4098 15.3883 35.1469C12.1067 34.0396 10.9217 34.2321 11.4686 35.821C11.8788 36.9765 17.3937 38.5171 21.0855 38.5171C28.0134 38.5171 33.9385 34.9543 38.633 27.9732C40.9119 24.5548 40.684 23.9771 35.3058 20.1736C31.6596 17.6219 27.6487 16.3701 23.2277 16.4182C21.3134 16.4182 19.2624 16.6108 18.6243 16.8034Z" fill="#3F352C"/>
</g>
</svg>
