<svg width="112" height="23" viewBox="0 0 112 23" fill="none" xmlns="http://www.w3.org/2000/svg">
  <!-- a -->
  <path fill-rule="evenodd" clip-rule="evenodd" d="M43.6585 3.96636C45.0823 3.85721 46.8552 4.09595 48.1001 4.74686C50.947 6.23538 50.6261 9.60478 50.6146 12.1338L50.5919 16.6285C50.5884 17.5245 50.5258 18.5233 50.8077 19.3918C50.9515 19.8352 51.205 20.208 51.6885 20.4088C52.3797 20.6958 53.2053 20.3807 53.8751 20.1898C53.2724 21.1964 52.4928 22.0505 51.2133 22.3777C50.3636 22.595 49.4261 22.5134 48.6683 22.0975C47.5217 21.4681 47.1905 20.4029 46.8727 19.3162C46.2558 20.0196 45.5256 20.6376 44.7057 21.1501C43.1301 22.1556 41.3612 22.7682 39.3942 22.4321C37.6987 22.1426 36.5532 21.2689 35.6143 20.0265C35.5161 19.8569 35.4252 19.6839 35.3421 19.508C34.8773 18.4973 34.7673 17.4176 35.2845 16.4022C36.7714 13.4831 43.7697 12.0887 46.9532 11.1011C46.9414 10.1977 46.932 9.28765 46.6779 8.40684C46.3982 7.43669 45.9253 6.60603 44.9307 6.09082C44.065 5.64199 42.8683 5.26629 41.865 5.52463C40.2505 5.94038 39.7892 7.54353 39.0753 8.70354C38.7877 9.17092 38.426 9.54515 37.8339 9.68549C37.311 9.80939 36.655 9.77567 36.1965 9.49689C35.857 9.29038 35.7243 8.98358 35.6767 8.63463C35.5997 8.07054 35.8825 7.42848 36.2749 6.99271C38.0179 5.05641 40.9854 4.17687 43.6585 3.96636ZM46.6502 12.6686L46.8166 12.683C47.1627 13.1244 46.9469 16.7579 46.9391 17.5538C46.0229 18.6423 44.7719 19.6987 43.2598 20.0518C42.1168 20.3188 41.1448 20.1066 40.1474 19.5853C39.7385 19.2389 39.4266 18.8678 39.2385 18.388C38.9264 17.5925 38.8792 16.5887 39.34 15.8309C40.4288 14.0402 44.5564 13.2825 46.6502 12.6686Z" fill="#3F352C"/>
  <!-- e (first) -->
  <path fill-rule="evenodd" clip-rule="evenodd" d="M23.0751 3.95062C23.7102 3.89984 24.3955 3.88804 25.031 3.93313C27.138 4.08253 29.1527 4.92436 30.5317 6.36947C32.1547 8.07039 32.5646 10.0849 32.3528 12.254L18.5724 12.2487C18.5606 14.333 18.778 16.2752 20.2929 17.9563C21.3444 19.1232 22.7975 19.8578 24.4663 20.0211C26.7112 20.2407 28.7583 19.4741 30.4821 18.2486L31.4462 17.4784C31.7794 17.5774 32.0546 17.6771 32.3521 17.8442C32.3717 18.1042 32.2163 18.3263 32.0624 18.5381C30.7928 20.2875 28.4863 21.9077 26.1888 22.3253C23.7007 22.7777 20.9518 22.366 18.838 21.092C16.6774 19.7897 15.2517 17.6851 14.7904 15.4081C14.2434 12.7092 14.7807 9.7454 16.5631 7.48185C18.1427 5.47559 20.4044 4.36216 23.0751 3.95062ZM23.6002 5.21472C23.6424 5.2143 23.6847 5.21345 23.7267 5.21345C24.8823 5.21134 25.9133 5.54576 26.7294 6.29044C28.0729 7.51662 28.3227 9.11998 28.3298 10.7522L23.5359 10.7581L18.5469 10.7558C18.7655 9.52034 19.1645 8.29459 19.9851 7.26228C20.9048 6.10564 22.0361 5.44399 23.6002 5.21472Z" fill="#3F352C"/>
  <!-- e (second) -->
  <path fill-rule="evenodd" clip-rule="evenodd" d="M102.709 3.95462C103.147 3.93081 103.587 3.90869 104.026 3.91417C106.207 3.94136 108.278 4.62767 109.806 6.04602C111.709 7.81374 112.048 9.89585 111.995 12.2504L98.1941 12.2416C98.161 14.3323 98.416 16.3078 99.9446 17.9862C100.985 19.1285 102.425 19.8829 104.076 20.0281C106.358 20.2289 108.411 19.4861 110.156 18.2224C110.392 18.0342 110.642 17.8136 110.921 17.679C111.166 17.5614 111.438 17.5618 111.69 17.6495L111.791 17.8777C111.719 18.332 111.51 18.6786 111.209 19.0491C109.832 20.7433 107.745 22.0404 105.414 22.3909C102.969 22.7586 100.285 22.2638 98.2654 20.9662C96.1303 19.594 94.7759 17.4792 94.3566 15.1761C93.875 12.5305 94.4121 9.60274 96.2134 7.41716C97.8256 5.46105 100.032 4.30758 102.709 3.95462ZM103.261 5.21948C103.273 5.21906 103.285 5.21821 103.296 5.218C104.533 5.19567 105.626 5.4656 106.512 6.27308C107.863 7.50431 108.029 9.12221 107.992 10.7483L103.08 10.7576L98.1582 10.7622C98.445 9.42901 98.8438 8.12909 99.7737 7.02787C100.679 5.95573 101.799 5.41419 103.261 5.21948Z" fill="#3F352C"/>
  <!-- T -->
  <path d="M5.6659 0.0134183C5.97139 0.00498952 6.27876 -0.042201 6.54695 0.111203C6.86164 1.48383 6.80995 3.04083 6.85504 4.44359L12.7528 4.444L12.748 6.14724L6.83402 6.154L6.82977 13.7074C6.82859 15.1818 6.6539 16.8596 6.99645 18.3028C7.10268 18.7506 7.34136 19.175 7.70232 19.5028C9.30931 20.9621 11.3826 19.112 13.0481 19.117L13.1961 19.259C13.121 19.6754 12.8101 19.962 12.5268 20.284C12.2969 20.5518 12.0457 20.8047 11.7756 21.0409C10.6403 22.0357 9.17711 22.4044 7.62135 22.3891C6.4301 22.3773 5.31367 22.0869 4.48031 21.2935C3.80229 20.6481 3.41725 19.7976 3.23476 18.9375C2.90566 17.3862 3.07423 15.6966 3.07446 14.1223C3.06266 11.465 3.06809 8.80737 3.09075 6.1502L0 6.14789L0.00637604 4.7506C0.867593 4.6111 1.70733 4.36583 2.46727 3.97389C4.25226 3.05368 5.14606 1.76534 5.6659 0.0134183Z" fill="#3F352C"/>
  <!-- u -->
  <path d="M59.233 4.38711L60.353 4.29523C60.3931 6.96272 60.3574 9.63423 60.3588 12.3021C60.3598 13.7348 60.2807 15.2212 60.4455 16.6461C60.5673 17.7008 60.8777 18.9223 61.8561 19.6052C62.6472 20.1573 63.7168 20.3238 64.6954 20.2081C66.6513 19.9774 68.4207 18.8945 69.6191 17.529L69.6349 11.7941C69.6368 10.5681 69.6989 9.31309 69.5596 8.09344C69.2463 5.34862 68.331 6.68901 66.9356 5.67439C66.7535 5.36885 66.7703 5.22978 66.0859 4.89895L66.0958 4.83657C68.4678 4.53545 71.3828 4.46697 73.3796 4.29945L73.3824 13.6693C73.3909 14.8948 73.0743 19.1044 73.6298 19.9643C74.0859 20.6704 74.9828 20.8868 75.8008 21.0944C75.8584 21.3955 75.8435 21.5689 75.7727 21.8599C74.8735 22.1139 70.7603 22.3343 69.599 22.388L69.612 19.3937C69.323 19.6948 69.014 19.9801 68.6863 20.2479C66.8888 21.7061 64.6907 22.6815 62.2187 22.5517C56.7676 22.2656 56.5939 17.8752 56.5991 14.1567L56.6073 9.48419C56.604 8.69378 56.7147 7.51671 56.2756 6.81164C55.761 5.98562 54.5945 6.20455 53.9746 5.57598C53.8678 5.30415 53.8272 5.16887 53.8745 4.8745C55.5648 4.5266 57.5006 4.52155 59.233 4.38711Z" fill="#3F352C"/>
  <!-- r -->
  <path d="M89.5668 4.05099C90.3525 3.99746 91.1953 3.9806 91.928 4.27835C92.5097 4.51498 93.0747 5.02198 93.2836 5.56732C93.4482 5.99761 93.3719 6.58741 93.1587 6.9941C91.9026 9.39018 89.0606 6.47994 86.9243 7.22505C85.8592 7.59654 85.1665 8.50179 84.7196 9.40409C84.5071 9.83354 84.3527 10.263 84.2928 10.7312C84.1421 11.9098 84.2975 13.1684 84.2987 14.3558C84.3001 15.7893 84.1488 17.2641 84.2729 18.6926C84.3046 19.0563 84.3825 19.4265 84.5402 19.7647C85.1981 21.1768 86.086 20.7326 87.2858 21.1574C87.312 21.4606 87.3283 21.6861 87.2187 21.9821C85.6167 22.2695 80.8146 22.0515 78.9163 22.0454C78.5043 22.0472 78.1795 22.1048 77.8133 21.9282C77.7876 21.8104 77.7723 21.76 77.7664 21.6304C77.7177 20.58 79.1281 21.2193 79.8118 20.5499C80.1522 20.2165 80.3186 19.766 80.3902 19.3277C80.6111 17.9736 80.4943 16.5169 80.4931 15.1466L80.4612 7.58749C79.7419 6.59563 78.3587 6.31347 78.0988 5.86801L78.1908 5.62653C79.0721 4.99227 82.6232 4.51751 83.9578 4.19996L83.9422 8.5256C84.2248 8.1088 84.496 7.68526 84.7966 7.27815C85.956 5.70766 87.4494 4.44292 89.5668 4.05099Z" fill="#3F352C"/>
</svg>
