<svg width="40" height="40" viewBox="0 0 40 40" fill="none" xmlns="http://www.w3.org/2000/svg">
<g opacity="0.8">
<path d="M14.3206 2.64355L9.60059 5.24609V10.7715V16.3369L14.4006 20.2607C17.0806 22.4229 19.6006 24.1846 20.0007 24.1846C20.4007 24.1846 22.9207 22.4229 25.6007 20.2607L30.4007 16.3369V10.7715V5.24609L25.5607 2.60351C22.9207 1.16211 20.3607 -0.0390648 19.8806 0.000974312C19.4006 0.000974312 16.8806 1.20215 14.3206 2.64355ZM23.4007 3.80469C25.2807 4.80566 26.8807 5.7666 27.0007 5.9668C27.1207 6.12695 25.6007 7.32812 23.6007 8.56933L20.0007 10.8516L16.3606 8.56933C13.9606 7.04785 12.8806 6.12695 13.1606 5.84668C13.4806 5.52637 19.5206 2.04297 19.9207 2.00293C19.9607 1.96289 21.5207 2.80371 23.4007 3.80469ZM15.3606 10.4111L19.2006 12.8535V17.0576C19.2006 20.4209 19.0806 21.1416 18.6806 20.9014C18.3606 20.7412 16.5606 19.2998 14.6806 17.7783L11.2006 14.9756V11.4521C11.2006 9.53027 11.2806 7.96875 11.3606 7.96875C11.4806 7.96875 13.2806 9.08984 15.3606 10.4111ZM28.8007 11.4521V14.9756L25.3207 17.7783C23.4407 19.2998 21.6407 20.7412 21.3207 20.9014C20.9207 21.1416 20.8007 20.4209 20.8007 17.0576V12.8535L24.5207 10.4512C26.5207 9.12988 28.3207 8.00879 28.5207 8.00879C28.6807 7.96875 28.8007 9.53027 28.8007 11.4521Z" fill="#3F352C"/>
<path d="M0.680004 7.88867C0.0800005 8.52929 0 9.7705 0 16.8574V25.1055L4.40003 30.4707C8.72006 35.7158 8.76006 35.8359 8.80006 37.8779C8.80006 39.7197 8.92006 40 9.60006 40C10.3201 40 10.4001 39.7197 10.4001 37.1973V34.4346L6.32004 29.5098C1.60001 23.8643 1.64001 23.9443 1.60001 15.8965C1.60001 9.93066 1.72001 9.16992 2.80002 9.16992C3.84002 9.16992 4.00003 9.93066 4.00003 14.375C4.00003 17.3379 3.84002 18.3789 3.40002 18.7793C3.08002 19.0596 2.80002 19.9004 2.80002 20.7012C2.80002 21.9023 3.24002 22.543 6.48004 25.8262C10.1601 29.6299 11.6001 30.3906 11.6001 28.709C11.6001 28.1084 10.4001 26.627 8.16005 24.3447C4.72003 20.8613 4.12003 19.5801 5.92004 19.5801C6.80004 19.5801 14.0001 26.8672 14.9601 28.709C15.4401 29.6699 15.7201 31.5117 15.8801 35.0352C16.0801 39.5195 16.2001 40 16.8801 40C17.5601 40 17.6001 39.5996 17.6001 34.7148C17.6001 30.2705 17.4801 29.1895 16.8001 27.7881C15.7601 25.626 7.60005 17.5781 6.44004 17.5781C5.64004 17.5781 5.60004 17.418 5.60004 13.0537C5.60004 9.12988 5.48003 8.40918 4.88003 7.84863C3.88002 6.92773 1.48001 6.96777 0.680004 7.88867Z" fill="#3F352C"/>
<path d="M35.08 7.88867C34.52 8.48925 34.4 9.49023 34.4 13.0937C34.4 17.418 34.36 17.5781 33.56 17.5781C32.36 17.5781 24.1199 25.666 23.1599 27.7881C22.5599 29.1094 22.3999 30.3906 22.3999 34.6748C22.3999 39.5996 22.4399 40 23.1199 40C23.7999 40 23.9199 39.5195 24.1199 35.0352C24.2799 31.5117 24.5599 29.6699 25.0399 28.709C25.9999 26.8672 33.2 19.5801 34.08 19.5801C35.88 19.5801 35.28 20.8613 31.84 24.3447C29.5999 26.627 28.3999 28.1084 28.3999 28.709C28.3999 30.3906 29.8399 29.6299 33.52 25.8262C36.76 22.543 37.2 21.9023 37.2 20.7012C37.2 19.9004 36.92 19.0596 36.6 18.7793C36.16 18.3789 36 17.3379 36 14.375C36 9.93066 36.16 9.16992 37.2 9.16992C38.28 9.16992 38.4 9.93066 38.4 15.8965C38.36 23.9443 38.4 23.8643 33.68 29.5098L29.5999 34.4346V37.1973C29.5999 39.7197 29.6799 40 30.4 40C31.08 40 31.2 39.7197 31.2 37.8779C31.24 35.8359 31.28 35.7158 35.6 30.4707L40 25.1055V16.8174C40 9.25 39.92 8.44922 39.28 7.84863C38.28 6.92773 35.88 6.96777 35.08 7.88867Z" fill="#3F352C"/>
</g>
</svg>
