<svg width="40" height="40" viewBox="0 0 40 40" fill="none" xmlns="http://www.w3.org/2000/svg">
<g opacity="0.8">
<path d="M22.7732 1.50492C22.9818 2.84707 22.7732 3.33513 21.3134 5.24667C19.645 7.44292 18.8526 9.5985 19.3531 10.778C19.7702 11.8354 20.4375 11.4287 20.4375 10.1272C20.4375 9.19178 20.9797 8.33769 22.7315 6.54815C24.6501 4.59594 25.0255 3.9452 25.0255 2.72506C25.0255 1.22022 24.1496 8.73793e-05 23.1069 8.73793e-05C22.6481 8.73793e-05 22.5647 0.366128 22.7732 1.50492Z" fill="#3F352C"/>
<path d="M8.75906 2.23671C8.75906 3.37551 8.55052 3.74155 7.50779 4.27028C6.00626 5.00236 5.88114 5.69377 7.21583 5.69377C8.55052 5.69377 9.05103 6.14115 9.80179 7.84934C10.6777 9.8829 11.2616 9.76089 11.2616 7.52397C11.2616 5.9378 11.3867 5.6531 12.5129 5.0837C14.1813 4.2296 14.0978 3.66021 12.3043 3.66021C11.0531 3.66021 10.7611 3.49752 10.2606 2.23671C9.46812 0.406509 8.75906 0.406509 8.75906 2.23671ZM10.5526 5.12437C10.3857 5.57175 10.1772 5.61243 9.76008 5.24638C9.05103 4.67699 9.3847 4.02625 10.2189 4.31095C10.5108 4.43296 10.6777 4.799 10.5526 5.12437Z" fill="#3F352C"/>
<path d="M16.2666 1.95225C16.2666 2.15561 16.5586 2.92836 16.9339 3.66044C17.5179 4.71789 17.5596 5.24662 17.1425 6.50743C16.1415 9.84247 16.8922 13.8282 18.6023 13.8282C19.3531 13.8282 19.3531 13.3809 18.5606 12.3641C17.7681 11.3473 17.7681 9.88314 18.5606 7.72756C19.3531 5.49065 19.3531 3.66044 18.5189 2.52165C17.8933 1.66755 16.2666 1.26084 16.2666 1.95225Z" fill="#3F352C"/>
<path d="M1.91862 5.89731C1.58495 7.15811 2.25229 10.1678 3.33673 12.2013C4.50459 14.3976 4.37946 14.5196 2.7528 12.8521C1.3764 11.3879 0 10.9405 0 11.9166C0 12.8928 1.33469 14.2756 3.50357 15.455C5.29706 16.4312 7.50764 18.5461 7.50764 19.2375C7.50764 19.3188 6.79859 19.2375 5.9227 18.9934C5.00509 18.7494 3.92066 18.7087 3.50357 18.8714C2.7528 19.1561 2.7528 19.1968 3.71211 19.9695C4.37946 20.4983 5.33877 20.7423 6.8403 20.7423C8.25841 20.7423 9.38455 21.027 10.2187 21.5557L11.47 22.3691H10.177C9.00917 22.3691 8.84233 22.5318 8.63379 23.6706C8.34182 25.6228 9.05088 29.8933 9.96848 31.6422C10.9695 33.5131 12.1791 34.6519 14.5982 35.7907C16.8922 36.8888 17.9349 37.7429 18.352 38.8817C18.644 39.6137 19.1445 39.7764 21.2717 39.9391C22.7315 40.0205 24.8586 40.0205 26.0682 39.9391C28.0285 39.7764 28.3205 39.6544 28.9044 38.475C29.3632 37.4988 30.2391 36.8074 32.2412 35.872C33.8261 35.1399 35.3693 34.0825 36.0367 33.269C37.3714 31.5202 38.4558 27.4937 38.289 24.7281C38.1638 22.6132 38.1221 22.5725 36.8292 22.4505C36.0784 22.3691 35.4528 22.1658 35.4528 21.9218C35.4528 21.7184 36.4121 19.0341 37.5799 15.9838C40.7498 7.76818 40.7915 4.88053 37.7885 4.88053C36.9126 4.88053 36.0367 5.24657 35.3693 5.81596C33.9512 7.11744 30.9899 11.4286 28.9044 15.2517C27.9451 17.0412 27.1109 18.18 27.1109 17.7733C27.1109 17.4073 26.9441 17.0819 26.6938 17.0819C26.4853 17.0819 26.2767 16.5125 26.2767 15.8618C26.2767 14.3976 25.6511 14.2756 24.9838 15.5364C24.6918 16.0651 24.233 16.6345 23.941 16.8785C23.6491 17.0819 23.3571 17.6513 23.2737 18.0987C23.1903 18.7494 23.3571 18.8714 24.2747 18.7901C25.4843 18.6274 25.9848 19.1155 25.6094 20.0916C25.3174 20.8643 23.7742 20.9863 23.7742 20.2136C23.7742 19.9289 23.1069 19.1155 22.3561 18.424C21.5636 17.7326 20.7711 16.7158 20.6043 16.1058C20.2289 14.5603 18.9359 14.845 19.0611 16.4718C19.1028 17.1632 18.8525 17.8546 18.4354 18.1393C17.8515 18.5867 17.8098 18.7494 18.3103 19.0748C18.6857 19.3188 18.7274 19.5222 18.3937 19.6848C18.1435 19.8475 17.9349 20.4169 17.9349 20.9863C17.9349 22.2471 17.3093 22.2471 16.4334 20.9457C15.9746 20.2542 15.8495 19.5628 16.0163 18.7901C16.6836 16.1871 16.7671 15.455 16.3083 15.455C16.0997 15.455 15.5992 15.9431 15.2238 16.5532C14.5565 17.6513 14.5565 17.6513 14.8067 15.455C14.9319 14.2349 15.1404 12.4454 15.2655 11.4693C15.4324 10.3711 15.349 9.76107 15.057 9.76107C14.3479 9.76107 13.5972 11.4286 13.3469 13.6248L13.1384 15.6584L12.3876 14.3162C11.9705 13.6248 11.3866 13.0148 11.0529 13.0148C9.96848 13.0148 10.3856 14.6416 11.8037 15.9838C12.5127 16.7158 13.7223 18.4647 14.4314 19.8475L15.7243 22.4505L14.4731 22.2065C12.5544 21.8404 11.2615 20.4576 11.2615 18.8308C11.2615 17.1632 10.6358 15.8618 9.75993 15.8618C9.34284 15.8618 9.21772 16.1465 9.38455 16.9599C10.1353 20.2949 10.1353 20.2542 8.75892 18.7087C7.54935 17.3259 7.46593 17.1632 7.71619 14.5603C7.88302 12.7301 7.79961 11.7946 7.46593 11.5913C6.79859 11.1846 6.25637 12.1607 6.25637 13.8282L6.21466 15.2517L5.42219 13.8282C5.00509 13.0554 4.50459 11.3879 4.33775 10.1678C4.04578 7.76818 3.04477 4.88053 2.50255 4.88053C2.33571 4.88053 2.04375 5.32791 1.91862 5.89731ZM37.7885 7.07677C38.1221 7.8902 36.8709 11.9166 35.4528 14.6009C33.8678 17.6513 32.1577 19.2375 30.6145 19.0341C28.2788 18.7901 28.9461 16.4718 33.0753 10.6558C35.7447 6.87341 37.2462 5.73462 37.7885 7.07677ZM21.4802 21.149C21.4802 22.5318 19.3947 22.8572 18.9777 21.5964C18.6023 20.4169 19.1028 19.8475 20.3541 20.0102C21.2299 20.0916 21.4802 20.3356 21.4802 21.149ZM32.2412 24.0773C32.3246 24.362 32.2412 24.9314 32.0326 25.2975C31.6989 25.9482 30.823 26.0296 22.5229 26.0296C15.0987 26.0296 13.3469 26.1516 13.3469 26.5583C13.3469 27.209 18.5188 27.6564 25.6928 27.6564C28.9878 27.6564 30.0306 27.7784 30.4477 28.2665C31.2818 29.2426 30.4059 30.5847 27.7783 32.537C25.4426 34.2451 24.1913 36.1567 24.1913 37.9869C24.1913 38.963 24.0662 39.0443 22.1475 39.0443C20.3123 39.0443 20.0204 38.9223 19.0194 37.6209C18.3937 36.8481 17.1007 35.7907 16.1414 35.3433C11.7203 33.147 10.177 30.9914 9.71823 26.2329L9.46797 23.5893H20.7711C29.4049 23.5893 32.0743 23.7113 32.2412 24.0773Z" fill="#3F352C"/>
<path d="M26.9026 6.1008C26.3604 7.11758 25.985 7.32094 24.8172 7.32094C23.1488 7.32094 22.9403 7.89034 24.3167 8.58175C25.6513 9.27316 25.8599 9.76121 25.5679 11.4694C25.2343 13.5436 26.4438 13.625 27.1112 11.5914C27.3614 10.8187 27.8202 10.1273 28.0705 10.1273C28.3624 10.0866 29.0298 10.0459 29.572 10.0052C31.0318 9.96457 31.0318 9.27316 29.6137 8.45973C28.6127 7.89034 28.3624 7.48362 28.3624 6.30416C28.3624 4.5553 27.7785 4.47395 26.9026 6.1008ZM27.4448 9.27316C27.0277 9.72054 26.9026 9.67987 26.5689 9.11047C26.3187 8.66309 26.3604 8.33772 26.7358 8.09369C27.4865 7.64631 28.0288 8.54108 27.4448 9.27316Z" fill="#3F352C"/>
</g>
</svg>
